<?xml version="1.0" encoding="UTF-8"?>
<svg id="Camada_1" xmlns="http://www.w3.org/2000/svg" xmlns:xlink="http://www.w3.org/1999/xlink" viewBox="0 0 595.28 841.89">
  <defs>
    <style>
      .cls-1, .cls-2 {
        fill: #fff;
      }

      .cls-2 {
        fill-rule: evenodd;
      }

      .cls-3 {
        fill: none;
      }

      .cls-4 {
        clip-path: url(#clippath);
      }
    </style>
    <clipPath id="clippath">
      <rect class="cls-3" width="595.28" height="841.89"/>
    </clipPath>
  </defs>
  <g class="cls-4">
    <rect class="cls-1" x="115.47" y="238.78" width="364.33" height="364.33" transform="translate(-210.48 333.75) rotate(-45)"/>
    <rect x="125.95" y="249.26" width="343.37" height="343.37" transform="translate(-210.48 333.75) rotate(-45)"/>
    <rect class="cls-1" x="135.83" y="259.14" width="323.61" height="323.61" transform="translate(-210.48 333.75) rotate(-45)"/>
    <rect x="145.14" y="268.45" width="304.99" height="304.99" transform="translate(-210.48 333.75) rotate(-45)"/>
    <path class="cls-2" d="M293.64,620.18l-35.9-35.9v-163.34H94.4l199.24-199.24v398.48ZM337.54,308.38v76.66h76.66l-76.66-76.66ZM257.74,385.04v-76.66l-76.66,76.66h76.66ZM301.63,221.71l199.24,199.24h-163.34v163.34l-35.9,35.9V221.71Z"/>
  </g>
</svg>