<?xml version="1.0" encoding="UTF-8"?>
<svg id="ISS_MMK" xmlns="http://www.w3.org/2000/svg" viewBox="0 0 683.04 546.61">
  <defs>
    <style>
      .cls-1 {
        font-family: YuGothicUI-Semilight, 'Yu Gothic UI';
        font-size: 67px;
        font-weight: 300;
        letter-spacing: .06em;
        stroke-width: 5px;
      }

      .cls-1, .cls-2 {
        fill: #1d1d1b;
        stroke: #1d1d1b;
        stroke-miterlimit: 10;
      }

      .cls-3 {
        fill: #e62630;
      }
    </style>
  </defs>
  <g>
    <path class="cls-2" d="M181.83,266.46c24.44,3.6,47.49,8.13,70.75,10,14.83,1.19,30.54.64,44.85-3.05,25.78-6.65,31.57-33.38,11.3-50.59-9.74-8.27-22.05-13.61-33.43-19.85-19.61-10.76-40.71-19.33-58.84-32.14-33.42-23.6-42.77-57.97-35.07-96.96,7.21-36.55,31.27-58.42,66.21-67.65,41.2-10.89,82.03-5.33,121.39,9.01,6.92,2.52,13.83,12.91,15.33,20.72,2.52,13.06.69,26.97.69,40.85-20.72-3.5-40.47-8.03-60.47-9.81-14.86-1.32-30.58-1.19-44.86,2.45-7.74,1.97-16.94,11.81-18.65,19.61-1.44,6.54,5.04,18.59,11.46,22.39,20.56,12.16,42.92,21.22,64.19,32.23,23.61,12.23,44.03,28.16,54.96,53.54,28.96,67.28-11.93,135.11-87.17,140.2-32.37,2.19-65.34-3.01-97.92-6.11-15.26-1.45-24.39-11.23-24.67-27.38-.22-12.42-.04-24.85-.04-37.45Z"/>
    <path class="cls-2" d="M127.67,337.79c-22.02,0-42.34.41-62.65-.16-11.07-.31-19.04-5.49-19.03-18.17.11-102.94.23-205.87.39-308.81,0-.39.61-.78,2.06-2.51,21.16,0,43.5-.74,65.73.59,4.77.28,9.76,7.56,13.34,12.55,1.78,2.49.75,7.1.75,10.75.03,97.72.03,195.45,0,293.17,0,3.58-.33,7.16-.6,12.58Z"/>
    <path class="cls-2" d="M428.8,266.46c24.44,3.6,47.49,8.13,70.75,10,14.83,1.19,30.54.64,44.85-3.05,25.78-6.65,31.57-33.38,11.3-50.59-9.74-8.27-22.05-13.61-33.43-19.85-19.61-10.76-40.71-19.33-58.84-32.14-33.42-23.6-42.77-57.97-35.07-96.96,7.21-36.55,31.27-58.42,66.21-67.65,41.2-10.89,82.03-5.33,121.39,9.01,6.92,2.52,13.83,12.91,15.33,20.72,2.52,13.06.69,26.97.69,40.85-20.72-3.5-40.47-8.03-60.47-9.81-14.86-1.32-30.58-1.19-44.86,2.45-7.74,1.97-16.94,11.81-18.65,19.61-1.44,6.54,5.04,18.59,11.46,22.39,20.56,12.16,42.92,21.22,64.19,32.23,23.61,12.23,44.03,28.16,54.96,53.54,28.96,67.28-11.93,135.11-87.17,140.2-32.37,2.19-65.34-3.01-97.92-6.11-15.26-1.45-24.39-11.23-24.67-27.38-.22-12.42-.04-24.85-.04-37.45Z"/>
  </g>
  <text class="cls-1" transform="translate(91.99 411.75)"><tspan x="0" y="0">Seu distribuidor</tspan></text>
  <g id="Camada_2">
    <g>
      <g>
        <polygon class="cls-3" points="0 546.56 34.66 546.56 82.66 477.15 82.66 536.63 111.54 495.45 111.54 424.98 82.66 424.98 0 546.56"/>
        <polygon class="cls-3" points="84.33 546.56 165.3 424.98 193.74 424.98 193.74 546.56 165.52 546.56 165.3 476.71 118.19 546.56 84.33 546.56"/>
        <rect class="cls-3" x="204.76" y="452.46" width="27.99" height="94"/>
        <rect class="cls-3" x="609.86" y="452.46" width="27.99" height="94"/>
        <rect class="cls-3" x="507.22" y="452.46" width="27.98" height="94"/>
        <polyline class="cls-3" points="243.28 452.46 243.28 546.46 271.28 546.46 271.28 495.56"/>
        <path class="cls-3" d="M358.21,546.46h26.68v-58.66c0-20.07-16.05-35.12-34.07-35.12-9.99,0-23.72,3.88-30,12.58-6.4-7.65-13.29-12.58-25.44-12.58s-21.07,6.59-24.1,8.92v-9.14h-27.99v94h27.99v-50.89c0-6.93,3.98-15.66,15.06-15.66,12.37,0,14.38,10.87,14.38,15.66v50.89h28.11v-50.89c0-6.93,3.96-15.66,15.04-15.66,12.36,0,14.36,10.87,14.36,15.66v50.89Z"/>
        <polygon class="cls-3" points="567.22 452.46 601.51 452.46 568.2 499.46 601.51 546.46 568.2 546.46 535.55 498.43 567.22 452.46"/>
        <path class="cls-3" d="M467.89,452.46v8.4c-8.98-7.91-44.08-18.7-65.15,9.42-6.84,9.16-9.72,19.11-9.58,28.68.44,24.28,17.91,43.03,40.09,46.14,15.7,2.18,27.32,1.36,27.32,1.36v-26.76s-39.16,5.37-39.16-20.94c0-22.95,27.68-21.39,36.16-15.1,5.33,3.95,10.32,9.63,10.32,20.36v42.44h28.91v-94h-28.91Z"/>
      </g>
      <g>
        <path class="cls-3" d="M661.91,445.42v2.35h-6.46v17.38h-2.62v-17.38h-6.46v-2.35h15.54Z"/>
        <path class="cls-3" d="M664.23,445.42h3.72l5.51,16.68,5.47-16.68h3.69v19.73h-2.48v-11.65c0-.4,0-1.07.03-2,.02-.93.03-1.93.03-3l-5.47,16.64h-2.57l-5.52-16.64v.61c0,.48.01,1.22.04,2.21.03.99.04,1.72.04,2.18v11.65h-2.48v-19.73Z"/>
      </g>
    </g>
  </g>
</svg>