<?xml version="1.0" encoding="UTF-8"?>
<svg id="ISS_MMK" xmlns="http://www.w3.org/2000/svg" viewBox="0 0 616.28 516.45">
  <defs>
    <style>
      .cls-1, .cls-2 {
        fill: #1d1d1b;
      }

      .cls-2 {
        font-family: YuGothicUI-Bold, 'Yu Gothic UI';
        font-size: 141.97px;
        font-weight: 700;
        stroke: #1d1d1b;
        stroke-miterlimit: 10;
      }
    </style>
  </defs>
  <g>
    <path class="cls-1" d="M143,265.96c24.44,3.6,47.49,8.13,70.75,10,14.83,1.19,30.54.64,44.85-3.05,25.78-6.65,31.57-33.38,11.3-50.59-9.74-8.27-22.05-13.61-33.43-19.85-19.61-10.76-40.71-19.33-58.84-32.14-33.42-23.6-42.77-57.97-35.07-96.96,7.21-36.55,31.27-58.42,66.21-67.65,41.2-10.89,82.03-5.33,121.39,9.01,6.92,2.52,13.83,12.91,15.33,20.72,2.52,13.06.69,26.97.69,40.85-20.72-3.5-40.47-8.03-60.47-9.81-14.86-1.32-30.58-1.19-44.86,2.45-7.74,1.97-16.94,11.81-18.65,19.61-1.44,6.54,5.04,18.59,11.46,22.39,20.56,12.16,42.92,21.22,64.19,32.23,23.61,12.23,44.03,28.16,54.96,53.54,28.96,67.28-11.93,135.11-87.17,140.2-32.37,2.19-65.34-3.01-97.92-6.11-15.26-1.45-24.39-11.23-24.67-27.38-.22-12.42-.04-24.85-.04-37.45Z"/>
    <path class="cls-1" d="M88.84,337.29c-22.02,0-42.34.41-62.65-.16-11.07-.31-19.04-5.49-19.03-18.17.11-102.94.23-205.87.39-308.81,0-.39.61-.78,2.06-2.51,21.16,0,43.5-.74,65.73.59,4.77.28,9.76,7.56,13.34,12.55,1.78,2.49.75,7.1.75,10.75.03,97.72.03,195.45,0,293.17,0,3.58-.33,7.16-.6,12.58Z"/>
    <path class="cls-1" d="M389.96,265.96c24.44,3.6,47.49,8.13,70.75,10,14.83,1.19,30.54.64,44.85-3.05,25.78-6.65,31.57-33.38,11.3-50.59-9.74-8.27-22.05-13.61-33.43-19.85-19.61-10.76-40.71-19.33-58.84-32.14-33.42-23.6-42.77-57.97-35.07-96.96,7.21-36.55,31.27-58.42,66.21-67.65,41.2-10.89,82.03-5.33,121.39,9.01,6.92,2.52,13.83,12.91,15.33,20.72,2.52,13.06.69,26.97.69,40.85-20.72-3.5-40.47-8.03-60.47-9.81-14.86-1.32-30.58-1.19-44.86,2.45-7.74,1.97-16.94,11.81-18.65,19.61-1.44,6.54,5.04,18.59,11.46,22.39,20.56,12.16,42.92,21.22,64.19,32.23,23.61,12.23,44.03,28.16,54.96,53.54,28.96,67.28-11.93,135.11-87.17,140.2-32.37,2.19-65.34-3.01-97.92-6.11-15.26-1.45-24.39-11.23-24.67-27.38-.22-12.42-.04-24.85-.04-37.45Z"/>
  </g>
  <text class="cls-2" transform="translate(.5 471.79)"><tspan x="0" y="0">Comércio</tspan></text>
</svg>