<?xml version="1.0" encoding="utf-8"?>
<!-- Generator: Adobe Illustrator 16.0.0, SVG Export Plug-In . SVG Version: 6.00 Build 0)  -->
<!DOCTYPE svg PUBLIC "-//W3C//DTD SVG 1.1//EN" "http://www.w3.org/Graphics/SVG/1.1/DTD/svg11.dtd">
<svg version="1.1" id="レイヤー_1" xmlns="http://www.w3.org/2000/svg" xmlns:xlink="http://www.w3.org/1999/xlink" x="0px"
	 y="0px" width="147.917px" height="29px" viewBox="0 0 147.917 29" enable-background="new 0 0 147.917 29" xml:space="preserve">
<polygon fill="#DF2718" points="25.223,15.273 25.223,0 18.917,0 0,27.325 7.567,27.325 18.707,11.233 18.707,24.697 "/>
<rect x="137.675" y="6.305" fill="#DF2718" width="6.307" height="21.02"/>
<rect x="46.453" y="6.305" fill="#DF2718" width="6.306" height="21.02"/>
<polygon fill="#DF2718" points="135.784,6.305 128.217,6.305 120.86,15.296 120.86,6.305 114.554,6.305 114.554,27.325 
	120.86,27.325 120.86,16.395 120.86,15.88 128.217,27.325 135.784,27.325 128.217,15.555 "/>
<polygon fill="#DF2718" points="43.93,27.325 43.93,0 37.625,0 18.707,27.325 26.274,27.325 37.414,11.233 37.414,27.325 "/>
<path fill="#DF2718" d="M86.81,14.083c0-4.526-3.67-8.198-8.198-8.198c-2.44,0-4.633,1.068-6.135,2.763
	c-1.388-1.687-3.491-2.763-5.846-2.763c-1.938,0-3.705,0.729-5.045,1.928V6.305H55.28v21.02h6.306V15.133
	c0-1.741,1.412-3.153,3.152-3.153c1.741,0,3.153,1.412,3.153,3.153v12.191h6.305V15.133c0-1.741,1.412-3.153,3.153-3.153
	c1.741,0,3.153,1.412,3.153,3.153v12.191h6.306L86.81,14.083L86.81,14.083z"/>
<path fill="#DF2718" d="M105.727,27.325h6.307V6.305h-6.307v1.788c-1.806-1.385-4.064-2.209-6.516-2.209
	c-5.92,0-10.72,4.801-10.72,10.72c0,5.922,4.8,10.723,10.72,10.723h4.834v-6.098h-4.624c-2.67,0-4.834-2.164-4.834-4.834
	c0-2.669,2.165-4.833,4.834-4.833h0.631c3.134,0,5.674,2.54,5.674,5.674L105.727,27.325z"/>
</svg>
