<svg width="480" height="597" viewBox="0 0 480 597" fill="none" xmlns="http://www.w3.org/2000/svg">
<g clip-path="url(#clip0_501_392)">
<path d="M328.949 528.307C323.828 521.135 316.895 515.888 308.178 513.924C300.578 512.211 292.762 512.503 285.036 512.563L187.344 513.316C178.977 513.381 170.955 520.629 171.344 529.316C171.73 537.93 178.376 545.385 187.344 545.316C215.961 545.095 244.578 544.875 273.195 544.654C279.942 544.602 286.692 544.48 293.439 544.503C294.954 544.507 296.463 544.587 297.977 544.605C298.343 544.609 298.608 544.605 298.795 544.598C298.842 544.612 298.881 544.625 298.943 544.642C299.732 544.858 300.542 545.008 301.337 545.214C301.058 545.222 301.852 545.717 302.25 545.885C302.305 545.993 302.421 546.184 302.616 546.48C302.888 546.99 303.693 548.539 303.727 548.49C304.936 551.549 305.934 554.687 306.713 557.883C308.573 564.93 308.982 566.403 309.249 573.015C309.587 581.367 316.366 589.412 325.249 589.015C333.628 588.639 341.612 581.972 341.249 573.015C340.638 557.92 337.988 540.965 328.949 528.307Z" fill="#E6E6E6"/>
<path d="M193.086 564.413C191.251 553.293 189.452 542.166 187.581 531.053C185.683 519.779 181.807 509.455 173.033 502.056C170.689 500.079 168.258 498.233 165.817 496.393C164.959 495.746 164.102 495.098 163.254 494.437C163.203 494.398 163.171 494.373 163.127 494.339C163.034 494.258 162.922 494.163 162.771 494.036C159.115 490.941 155.581 487.709 152.216 484.273C149.227 481.221 146.369 478.04 143.641 474.728C142.959 473.901 142.287 473.066 141.623 472.224C141.508 472.079 140.893 471.284 140.488 470.765C140.111 470.246 139.422 469.308 139.306 469.145C138.53 468.047 137.768 466.94 137.02 465.823C131.924 458.187 127.511 450.118 123.833 441.707C123.468 440.873 123.112 440.034 122.765 439.19C122.671 438.932 122.551 438.602 122.391 438.161C121.649 436.123 120.91 434.087 120.232 432.025C118.792 427.644 117.554 423.198 116.518 418.688C116.006 416.461 115.545 414.223 115.135 411.974C114.923 410.817 114.726 409.657 114.542 408.496C114.511 408.303 114.332 407.05 114.226 406.341C114.147 405.63 114.002 404.37 113.982 404.175C113.865 403.004 113.761 401.832 113.67 400.659C113.466 398.019 113.328 395.374 113.255 392.725C113.132 388.018 113.217 383.311 113.508 378.604C113.674 375.959 113.911 373.321 114.202 370.688C114.219 370.527 114.233 370.398 114.246 370.282C114.263 370.164 114.284 370.031 114.308 369.865C114.524 368.41 114.75 366.957 115.003 365.508C115.963 360.009 117.211 354.563 118.743 349.195C119.468 346.656 120.255 344.137 121.106 341.639C121.484 340.531 121.875 339.426 122.278 338.326C122.252 338.397 123.461 335.31 123.477 335.206C128.272 323.877 136.114 313.549 136.125 300.68C136.132 291.966 128.761 283.62 120.125 284.022C115.819 284.184 111.745 286.012 108.76 289.119C105.776 292.226 104.114 296.371 104.125 300.68C104.125 300.875 104.124 301.042 104.124 301.204C104.043 301.476 103.976 301.702 103.915 301.902C102.98 303.934 101.835 305.865 100.808 307.846C97.9976 313.27 95.5987 318.871 93.3199 324.555C89.5893 333.81 86.7337 343.395 84.7906 353.183C80.5671 374.629 80.2392 396.661 83.8228 418.223C90.0264 456.036 110.484 492.232 138.926 516.563C141.394 518.674 143.922 520.714 146.475 522.714C147.531 523.541 148.596 524.353 149.666 525.159C150.172 525.541 152.268 527.193 151.346 526.393C153.328 528.084 154.163 528.936 154.672 530.182C154.746 530.47 154.846 530.86 154.982 531.393C155.341 532.798 155.682 534.2 155.965 535.625C158.441 548.077 160.162 560.737 162.23 573.269C163.651 581.88 174.252 587.484 181.912 584.903C190.828 581.899 194.609 573.639 193.086 564.413Z" fill="#E6E6E6"/>
<path d="M330.568 596.708C323.848 596.725 317.396 594.077 312.627 589.343C307.857 584.609 305.161 578.177 305.128 571.458V553.206C286.019 555.345 220.584 554.85 201.828 551.836V570.728C201.778 577.442 199.075 583.864 194.31 588.594C189.544 593.324 183.102 595.978 176.388 595.978C169.673 595.978 163.231 593.324 158.466 588.594C153.7 583.864 150.998 577.442 150.948 570.728V533.636C125.543 519.523 104.365 498.887 89.5989 473.856C74.8327 448.826 67.0132 420.309 66.9475 391.248C66.9475 341.418 89.5305 294.933 128.906 263.714C154.508 243.347 185.614 231.098 218.229 228.541C222.656 228.194 227.11 228.018 231.467 228.018C246.82 228.018 316.086 230.389 333.465 235.389L373.093 196.068C373.676 195.482 374.42 195.083 375.23 194.921C376.04 194.76 376.881 194.843 377.643 195.161C378.412 195.467 379.07 195.998 379.531 196.684C379.992 197.371 380.235 198.181 380.228 199.008V205.26L387.944 197.617C388.525 197.031 389.269 196.631 390.079 196.469C390.888 196.308 391.728 196.391 392.49 196.709C393.26 197.015 393.918 197.546 394.38 198.233C394.842 198.919 395.085 199.73 395.078 200.557V270.422C414.962 288.349 430.118 310.903 439.201 336.088C448.285 361.272 451.015 388.308 447.151 414.8C443.287 441.292 432.948 466.422 417.049 487.962C401.151 509.503 380.184 526.789 356.007 538.288V571.458C355.975 578.177 353.278 584.609 348.509 589.343C343.739 594.077 337.287 596.725 330.568 596.708ZM307.128 550.938V571.458C307.178 577.641 309.67 583.554 314.06 587.909C318.451 592.264 324.384 594.707 330.568 594.707C336.751 594.707 342.685 592.264 347.075 587.909C351.465 583.554 353.957 577.641 354.007 571.458V537.025L354.579 536.754C381.706 523.881 404.735 503.742 421.109 478.572C441.974 446.454 450.651 407.927 445.571 369.965C440.49 332.003 421.987 297.114 393.41 271.612L393.078 271.314V200.557C393.085 200.127 392.96 199.706 392.72 199.349C392.48 198.992 392.137 198.717 391.736 198.562C391.338 198.391 390.897 198.345 390.472 198.43C390.047 198.514 389.658 198.725 389.355 199.035L378.228 210.055V199.008C378.235 198.578 378.11 198.156 377.87 197.799C377.63 197.442 377.287 197.168 376.886 197.012C376.487 196.842 376.045 196.796 375.619 196.881C375.194 196.966 374.804 197.178 374.501 197.488L334.024 237.652L333.449 237.472C317.293 232.415 246.936 230.018 231.467 230.018C227.161 230.018 222.76 230.192 218.386 230.535C186.167 233.061 155.439 245.161 130.149 265.281C91.2545 296.119 68.9473 342.032 68.9473 391.248C69.0138 420.052 76.7915 448.313 91.4724 473.094C106.153 497.876 127.202 518.275 152.432 532.173L152.947 532.458V570.728C152.999 576.911 155.491 582.823 159.882 587.177C164.272 591.53 170.205 593.973 176.388 593.973C182.571 593.973 188.503 591.53 192.894 587.177C197.284 582.823 199.776 576.911 199.828 570.728V549.442L201.013 549.665C217.868 552.836 288.844 553.336 305.998 551.086L307.128 550.938Z" fill="#3F3D56"/>
<path d="M194.998 119.118L84.2577 152.398C80.7355 153.46 77.7791 155.878 76.0382 159.119C74.2972 162.36 73.914 166.16 74.9728 169.683C76.0316 173.207 78.4457 176.166 81.6849 177.91C84.9241 179.655 88.7233 180.042 92.248 178.988L189.158 149.858L191.188 149.248C191.599 138.786 194.437 128.564 199.478 119.388C198.845 119.103 198.169 118.927 197.478 118.868C196.643 118.787 195.8 118.872 194.998 119.118Z" fill="#FBBA16"/>
<path d="M90.3326 186.083C88.8626 186.079 87.4309 185.614 86.2398 184.752C85.0487 183.891 84.1584 182.677 83.6948 181.282L76.77 160.386C76.4808 159.513 76.3663 158.592 76.433 157.675C76.4998 156.758 76.7465 155.863 77.1591 155.042C77.5717 154.22 78.1422 153.488 78.8378 152.887C79.5334 152.286 80.3406 151.828 81.2132 151.539L171.344 121.669C172.217 121.38 173.138 121.265 174.055 121.332C174.972 121.398 175.866 121.645 176.688 122.057C177.509 122.47 178.242 123.04 178.843 123.736C179.444 124.431 179.902 125.238 180.191 126.111L187.116 147.007C187.692 148.725 187.577 150.601 186.794 152.236C186.011 153.871 184.623 155.137 182.923 155.766C182.84 155.797 182.756 155.827 182.671 155.854L92.5415 185.723C91.8292 185.961 91.0834 186.082 90.3326 186.083Z" fill="#2F2E41"/>
<path d="M259.128 82.0076C240.937 82.0146 223.462 89.0998 210.403 101.763C197.343 114.427 189.724 131.675 189.157 149.858C189.137 150.568 189.128 151.288 189.128 152.008C189.128 165.852 193.233 179.386 200.925 190.897C208.616 202.409 219.549 211.381 232.34 216.679C245.131 221.977 259.205 223.364 272.784 220.663C286.363 217.962 298.835 211.295 308.625 201.505C318.415 191.715 325.082 179.243 327.783 165.664C330.484 152.085 329.097 138.011 323.799 125.22C318.501 112.429 309.529 101.496 298.018 93.8047C286.506 86.113 272.972 82.0076 259.128 82.0076ZM259.128 220.008C241.099 219.989 223.814 212.818 211.065 200.07C198.317 187.322 191.146 170.037 191.128 152.008C191.128 151.078 191.148 150.158 191.188 149.248C191.729 135.927 196.174 123.06 203.97 112.246C211.766 101.432 222.568 93.1477 235.035 88.4238C247.501 83.6999 261.08 82.7445 274.085 85.6766C287.09 88.6087 298.946 95.2988 308.179 104.915C317.412 114.531 323.615 126.649 326.016 139.763C328.417 152.876 326.91 166.406 321.683 178.669C316.457 190.933 307.74 201.39 296.618 208.74C285.496 216.09 272.459 220.008 259.128 220.008Z" fill="#3F3D56"/>
<path d="M318.128 152.008C318.128 167.655 311.912 182.662 300.847 193.727C289.782 204.792 274.775 211.008 259.128 211.008C243.48 211.008 228.473 204.792 217.408 193.727C206.344 182.662 200.128 167.655 200.128 152.008C200.128 150.138 200.218 148.298 200.387 146.478C201.809 131.376 208.993 117.402 220.446 107.457C231.9 97.5125 246.744 92.3612 261.896 93.0728C277.048 93.7845 291.343 100.304 301.814 111.279C312.285 122.253 318.128 136.839 318.128 152.008Z" fill="#E6E6E6"/>
<path d="M276.698 155.928C275.267 154.047 273.386 152.558 271.228 151.598C268.566 150.476 265.816 149.573 263.008 148.898V132.838C267.325 133.489 271.375 135.335 274.698 138.168L277.958 131.218C276.083 129.547 273.93 128.217 271.597 127.288C269.012 126.241 266.298 125.544 263.528 125.218V117.078H255.978V125.298C253.062 125.625 250.25 126.569 247.728 128.068C245.449 129.416 243.531 131.296 242.137 133.548C240.807 135.745 240.118 138.27 240.148 140.838C240.018 143.621 240.824 146.367 242.438 148.638C243.923 150.604 245.885 152.159 248.137 153.158C250.842 154.313 253.639 155.239 256.498 155.928V171.318C251.403 170.933 246.548 168.996 242.588 165.768L239.328 172.728C241.542 174.558 244.06 175.987 246.768 176.948C249.735 178.009 252.834 178.655 255.978 178.868V186.938H263.528V178.718C267.721 178.259 271.654 176.456 274.738 173.578C276.096 172.275 277.168 170.705 277.888 168.966C278.608 167.228 278.958 165.359 278.918 163.478C279.043 160.783 278.261 158.125 276.698 155.928ZM256.498 147.198C254.659 146.64 252.949 145.722 251.468 144.498C250.881 143.975 250.417 143.33 250.109 142.607C249.801 141.884 249.657 141.103 249.688 140.318C249.633 138.537 250.288 136.807 251.508 135.508C252.86 134.145 254.605 133.239 256.498 132.918V147.198ZM267.748 168.478C266.472 169.786 264.811 170.652 263.008 170.948V157.708C264.731 158.17 266.344 158.976 267.748 160.078C268.28 160.532 268.703 161.101 268.985 161.742C269.267 162.382 269.401 163.078 269.378 163.778C269.447 165.494 268.865 167.173 267.748 168.478Z" fill="#FBBA16"/>
<path d="M93.5467 270.772C92.0008 270.769 90.499 270.257 89.274 269.314C88.0491 268.371 87.1695 267.05 86.7717 265.556L83.0015 251.286C82.5296 249.492 82.7884 247.585 83.7211 245.982C84.6537 244.379 86.1842 243.211 87.9766 242.735L206.917 211.305C208.712 210.837 210.619 211.098 212.222 212.032C213.824 212.967 214.992 214.498 215.468 216.29L218.662 228.38L218.064 228.427C187.559 230.798 158.372 241.858 133.956 260.298L133.783 260.382L95.3226 270.541C94.743 270.694 94.1461 270.772 93.5467 270.772Z" fill="#2F2E41"/>
<path d="M73.8479 341.258C59.8955 339.197 46.5516 334.151 34.7257 326.466C28.8669 322.661 23.4432 318.225 18.5518 313.238C13.7239 308.313 9.10528 302.716 6.71397 296.158C4.41322 290.091 4.5318 283.371 7.0452 277.389C9.52434 271.443 14.26 266.723 20.214 264.263C26.2036 261.875 33.4402 261.619 39.2694 264.235C42.0471 265.453 44.4508 267.388 46.2337 269.841C47.0625 270.972 47.6761 272.246 48.044 273.599C48.3854 274.825 48.4165 276.117 48.1344 277.358C47.7926 278.598 47.1898 279.749 46.3664 280.736C45.543 281.723 44.5182 282.523 43.3605 283.081C40.8127 284.389 38.052 285.23 35.2084 285.568C32.3483 285.958 28.2397 286.313 25.9404 284.017C25.4671 283.562 25.0948 283.014 24.8478 282.406C24.6749 281.941 24.6158 281.441 24.6754 280.948C24.6419 281.165 24.8141 280.475 24.8043 280.503C24.7679 280.605 24.6105 280.853 24.8343 280.472C24.9042 280.346 24.9821 280.225 25.0674 280.109C24.9914 280.207 24.8245 280.371 25.1226 280.089C25.3689 279.82 25.6855 279.624 26.0368 279.525C26.1753 279.485 26.3157 279.453 26.4545 279.415C26.8072 279.318 26.1028 279.42 26.4638 279.408C26.603 279.404 26.744 279.407 26.8828 279.401C27.2368 279.385 26.5335 279.305 26.8728 279.39C27.0045 279.423 27.135 279.455 27.2648 279.496C27.5469 279.585 27.065 279.289 27.2562 279.511C27.4802 279.77 27.021 279.258 27.2756 279.51C27.4023 279.634 27.5217 279.766 27.6332 279.904C28.0748 280.34 28.6703 280.584 29.2907 280.584C29.9112 280.584 30.5067 280.34 30.9482 279.904C31.3748 279.457 31.6128 278.864 31.6128 278.246C31.6128 277.629 31.3748 277.035 30.9482 276.589C28.6368 273.723 24.0712 274.431 21.733 276.853C18.751 279.942 19.9318 284.836 22.8325 287.531C26.1162 290.582 30.7669 290.794 34.9909 290.282C38.5606 289.94 42.0393 288.957 45.26 287.38C48.4602 285.808 50.963 283.104 52.284 279.792C52.8804 278.025 53.0946 276.151 52.9125 274.294C52.7304 272.438 52.1561 270.641 51.2276 269.023C47.4983 262.012 39.7761 258.418 32.1433 257.795C28.2135 257.487 24.2617 257.962 20.5165 259.191C16.7713 260.421 13.3072 262.381 10.3245 264.958C4.57547 270.133 1.03535 277.32 0.436226 285.033C-0.230034 293.029 2.87231 300.794 7.39545 307.247C12.1307 313.804 17.7813 319.647 24.1749 324.6C36.6743 334.579 51.3361 341.494 66.9869 344.791C68.8485 345.176 70.7201 345.505 72.6016 345.779C73.2003 345.924 73.8318 345.835 74.3675 345.531C74.9032 345.227 75.3029 344.73 75.4851 344.141C75.6458 343.542 75.5641 342.904 75.2577 342.364C74.9514 341.824 74.4449 341.427 73.8479 341.258Z" fill="#3F3D56"/>
<path d="M297.233 239.382C276.791 239.093 256.413 239.612 236.1 240.938C229.157 241.391 223.149 243.846 223.149 247.97C223.149 251.419 229.109 255.459 236.1 255.002C256.403 253.676 276.781 253.158 297.233 253.446C313.907 253.681 313.897 239.617 297.233 239.382Z" fill="#CCCCCC"/>
<path d="M267.019 252.749C264.81 252.749 212.914 252.667 212.914 245.498C212.914 238.33 264.81 238.248 267.019 238.248C269.229 238.248 321.125 238.33 321.125 245.498C321.125 252.667 269.229 252.749 267.019 252.749ZM214.943 245.498C216.363 247.672 235.439 250.749 267.019 250.749C298.599 250.749 317.675 247.672 319.096 245.498C317.676 243.325 298.599 240.248 267.019 240.248C235.439 240.248 216.363 243.325 214.943 245.498Z" fill="#3F3D56"/>
<path d="M431.673 441.2C443.162 440.881 457.459 440.482 468.474 432.436C471.754 429.941 474.449 426.76 476.37 423.115C478.291 419.469 479.392 415.448 479.595 411.332C479.82 404.978 477.524 399.431 473.13 395.718C467.377 390.857 458.976 389.717 449.922 392.377L459.302 323.829L452.417 322.886L441.39 403.473L447.14 400.834C453.806 397.776 462.957 396.22 468.643 401.026C470.04 402.282 471.128 403.844 471.822 405.589C472.517 407.334 472.8 409.216 472.649 411.088C472.481 414.151 471.654 417.142 470.226 419.857C468.799 422.572 466.803 424.948 464.374 426.823C455.802 433.084 444.406 433.892 431.48 434.253L431.673 441.2Z" fill="#3F3D56"/>
<path d="M412.635 329.741H375.203V336.691H412.635V329.741Z" fill="#3F3D56"/>
<path d="M110.485 302.738C108.819 302.732 107.209 302.134 105.944 301.05C104.679 299.965 103.841 298.466 103.581 296.82L101.296 282.239C101.011 280.405 101.465 278.532 102.558 277.033C103.651 275.533 105.295 274.528 107.128 274.239L228.66 255.197C230.494 254.911 232.366 255.365 233.865 256.458C235.365 257.552 236.37 259.195 236.659 261.029L238.944 275.611C239.229 277.444 238.775 279.317 237.682 280.816C236.589 282.316 234.945 283.321 233.112 283.61L111.58 302.652C111.218 302.709 110.852 302.737 110.485 302.738Z" fill="#2F2E41"/>
<path d="M60.1895 131.855C88.356 131.855 111.189 109.021 111.189 80.8547C111.189 52.6882 88.356 29.8547 60.1895 29.8547C32.0229 29.8547 9.18945 52.6882 9.18945 80.8547C9.18945 109.021 32.0229 131.855 60.1895 131.855Z" fill="#FBBA16"/>
<path d="M89.0646 94.0507C90.6945 93.4806 92.1835 92.5681 93.4314 91.3746C94.2571 90.5236 94.8867 89.5025 95.2762 88.3826C95.6657 87.2627 95.8056 86.0712 95.6862 84.8916C95.6168 84.0508 95.354 83.2375 94.9182 82.5151C94.4824 81.7927 93.8855 81.1809 93.1741 80.7275C91.3284 79.5924 88.8895 79.6353 86.4272 80.7768L86.143 60.8689L84.1433 60.8974L84.4773 84.3012L85.9996 83.3027C87.7649 82.1468 90.3014 81.3087 92.1262 82.4312C92.5776 82.7283 92.9543 83.1256 93.2271 83.592C93.4999 84.0585 93.6614 84.5816 93.6991 85.1207C93.7833 85.9995 93.6771 86.8861 93.3878 87.7202C93.0986 88.5543 92.6331 89.3163 92.0229 89.9543C89.8549 92.1055 86.646 92.8262 82.9836 93.4855L83.338 95.4536C85.285 95.158 87.2015 94.6885 89.0646 94.0507Z" fill="#2F2E41"/>
<path d="M106.737 59.4716L96.0867 61.0845L96.3861 63.0617L107.036 61.4488L106.737 59.4716Z" fill="#2F2E41"/>
<path d="M73.12 64.5614L62.4697 66.1743L62.7692 68.1515L73.4194 66.5386L73.12 64.5614Z" fill="#2F2E41"/>
<path d="M93.8923 301.846C92.0582 301.842 90.2687 301.28 88.762 300.234C87.2553 299.188 86.1028 297.708 85.4579 295.991L50.2948 201.822C45.9969 190.273 46.4559 177.49 51.5709 166.279C56.6859 155.068 66.0393 146.343 77.579 142.02L106.171 131.344C107.276 130.928 108.453 130.735 109.634 130.776C110.814 130.817 111.975 131.091 113.049 131.582C114.12 132.061 115.086 132.749 115.888 133.605C116.691 134.461 117.315 135.468 117.724 136.568L182.861 259.552C183.283 260.661 183.483 261.843 183.447 263.029C183.412 264.216 183.142 265.383 182.653 266.465C182.165 267.546 181.467 268.521 180.601 269.332C179.734 270.143 178.716 270.774 177.604 271.19L97.0376 301.274C96.0318 301.652 94.9665 301.845 93.8923 301.846Z" fill="#2F2E41"/>
<path d="M97.4961 134.583L162.125 221.008L118.393 135.49C118.032 134.492 117.478 133.575 116.762 132.791C116.047 132.008 115.184 131.373 114.223 130.923C113.262 130.473 112.222 130.217 111.161 130.169C110.101 130.121 109.042 130.282 108.044 130.644L97.4961 134.583Z" fill="#E6E6E6"/>
<path d="M199.828 200.218L84.4329 192.784C82.614 192.667 80.8359 192.193 79.2003 191.389C77.5647 190.584 76.1035 189.466 74.9002 188.097C73.6969 186.728 72.775 185.135 72.1872 183.41C71.5994 181.685 71.3571 179.86 71.4743 178.042C71.5914 176.223 72.0657 174.445 72.87 172.809C73.6743 171.173 74.7928 169.712 76.1619 168.509C77.5309 167.306 79.1235 166.384 80.8488 165.796C82.5741 165.208 84.3982 164.966 86.2171 165.083L201.612 172.515C202.464 172.57 203.297 172.792 204.063 173.169C204.829 173.546 205.513 174.069 206.077 174.711C206.64 175.352 207.072 176.097 207.347 176.905C207.623 177.713 207.736 178.568 207.681 179.42L206.733 194.149C206.622 195.869 205.832 197.475 204.537 198.613C203.242 199.751 201.548 200.328 199.828 200.218Z" fill="#FBBA16"/>
<path d="M168.993 204.983C168.84 204.983 168.688 204.978 168.535 204.968L73.7782 198.865C72.8608 198.806 71.9641 198.567 71.1391 198.161C70.3142 197.755 69.5772 197.191 68.9703 196.501C68.3634 195.81 67.8984 195.007 67.602 194.137C67.3055 193.267 67.1834 192.347 67.2425 191.43L68.8629 166.271C68.922 165.354 69.1612 164.457 69.5669 163.632C69.9726 162.807 70.5368 162.071 71.2273 161.464C71.9178 160.857 72.7211 160.392 73.5913 160.095C74.4614 159.799 75.3815 159.677 76.2988 159.736L171.055 165.839C172.907 165.961 174.635 166.811 175.86 168.205C177.085 169.599 177.707 171.422 177.59 173.274L175.97 198.433C175.881 199.781 175.404 201.075 174.598 202.159C173.792 203.243 172.689 204.071 171.424 204.544C170.646 204.835 169.823 204.983 168.993 204.983Z" fill="#2F2E41"/>
<path d="M59.6049 46.9405C66.3141 41.1702 75.5274 46.3321 83.2216 45.4285C90.5827 44.5639 96.3953 37.9609 97.8801 30.9461C99.6125 22.7621 95.3646 14.5629 89.1035 9.46034C82.2461 3.87176 73.1514 2.26741 64.5331 3.30134C54.6554 4.48634 45.6219 9.09069 37.5161 14.6599C29.692 19.869 22.497 25.9659 16.0745 32.8291C10.3233 39.1807 5.45068 46.7517 3.89471 55.2988C2.48071 63.0663 3.5604 71.6738 8.15222 78.254C10.5871 81.6266 13.8501 84.3148 17.6264 86.0592C21.5638 87.9927 25.7639 89.3749 29.5786 91.5609C35.3463 94.8662 40.9521 101.72 39.1453 108.852C38.758 110.41 37.9936 111.849 36.9193 113.042C35.6287 114.475 33.3006 112.581 34.5947 111.145C36.8675 108.622 36.778 105.257 35.5667 102.245C34.1264 98.8502 31.576 96.0456 28.3333 94.2903C24.3403 92.0073 19.9318 90.5982 15.8393 88.5187C11.9221 86.6191 8.52177 83.8013 5.92785 80.3049C1.02963 73.4979 -0.435533 64.639 0.675347 56.4439C1.87749 47.5755 6.43403 39.5167 12.146 32.7634C18.3622 25.414 25.9979 19.1929 33.7985 13.6041C42.1685 7.60721 51.4158 2.53729 61.6486 0.70358C70.5187 -0.88596 80.1333 0.0926609 87.8899 4.92651C95.1301 9.4386 100.682 17.2003 101.234 25.8732C101.433 29.8194 100.576 33.7471 98.752 37.2521C96.9282 40.7572 94.2035 43.7129 90.8581 45.8153C87.4254 47.8695 83.4344 48.794 79.4481 48.4586C75.1865 48.1858 70.9208 46.8808 66.632 47.2431C64.6912 47.3609 62.8418 48.1082 61.3639 49.3716C59.898 50.6324 58.151 48.1909 59.6049 46.9405Z" fill="#2F2E41"/>
</g>
<defs>
<clipPath id="clip0_501_392">
<rect width="480" height="597" fill="white"/>
</clipPath>
</defs>
</svg>
